<svg width="136" height="51" viewBox="0 0 136 51" fill="none" xmlns="http://www.w3.org/2000/svg">
<path d="M14.308 34.18C11.452 34.18 8.968 33.664 6.856 32.632C4.744 31.576 3.124 30.088 1.996 28.168C0.868 26.248 0.304 24.016 0.304 21.472C0.304 17.944 0.964 14.812 2.284 12.076C3.628 9.34 5.44 7.228 7.72 5.74C10 4.228 12.532 3.472 15.316 3.472C17.908 3.472 19.876 4.144 21.22 5.488C22.564 6.808 23.236 8.56 23.236 10.744C23.236 12.208 22.972 13.384 22.444 14.272C21.94 15.16 21.208 15.604 20.248 15.604C19.576 15.604 19.048 15.448 18.664 15.136C18.28 14.824 18.088 14.368 18.088 13.768C18.088 13.552 18.136 13.156 18.232 12.58C18.376 11.86 18.448 11.284 18.448 10.852C18.448 8.668 17.284 7.576 14.956 7.576C13.372 7.576 11.86 8.092 10.42 9.124C8.98 10.156 7.816 11.68 6.928 13.696C6.04 15.688 5.596 18.064 5.596 20.824C5.596 23.704 6.4 25.936 8.008 27.52C9.616 29.08 11.992 29.86 15.136 29.86C16.696 29.86 18.268 29.668 19.852 29.284C21.46 28.876 23.236 28.264 25.18 27.448C25.54 27.304 25.84 27.232 26.08 27.232C26.464 27.232 26.752 27.376 26.944 27.664C27.136 27.952 27.232 28.324 27.232 28.78C27.232 30.244 26.44 31.324 24.856 32.02C23.152 32.764 21.376 33.316 19.528 33.676C17.704 34.012 15.964 34.18 14.308 34.18ZM42.4161 22.948C42.7281 22.948 42.9681 23.104 43.1361 23.416C43.3041 23.728 43.3881 24.124 43.3881 24.604C43.3881 25.756 43.0401 26.44 42.3441 26.656C40.9041 27.16 39.3201 27.448 37.5921 27.52C37.1361 29.536 36.2361 31.156 34.8921 32.38C33.5481 33.58 32.0241 34.18 30.3201 34.18C28.8801 34.18 27.6441 33.832 26.6121 33.136C25.6041 32.44 24.8361 31.516 24.3081 30.364C23.7801 29.212 23.5161 27.964 23.5161 26.62C23.5161 24.796 23.8641 23.176 24.5601 21.76C25.2561 20.32 26.2161 19.204 27.4401 18.412C28.6641 17.596 30.0201 17.188 31.5081 17.188C33.3321 17.188 34.7961 17.824 35.9001 19.096C37.0281 20.344 37.6881 21.892 37.8801 23.74C39.0081 23.668 40.3521 23.428 41.9121 23.02C42.1041 22.972 42.2721 22.948 42.4161 22.948ZM30.6081 30.364C31.3761 30.364 32.0361 30.052 32.5881 29.428C33.1641 28.804 33.5481 27.904 33.7401 26.728C32.9961 26.224 32.4201 25.564 32.0121 24.748C31.6281 23.932 31.4361 23.068 31.4361 22.156C31.4361 21.772 31.4721 21.388 31.5441 21.004H31.3641C30.4041 21.004 29.6001 21.472 28.9521 22.408C28.3281 23.32 28.0161 24.616 28.0161 26.296C28.0161 27.616 28.2681 28.624 28.7721 29.32C29.3001 30.016 29.9121 30.364 30.6081 30.364ZM58.6583 22.948C58.9703 22.948 59.2103 23.104 59.3783 23.416C59.5463 23.728 59.6303 24.124 59.6303 24.604C59.6303 25.756 59.2823 26.44 58.5863 26.656C57.1463 27.16 55.5623 27.448 53.8343 27.52C53.3783 29.536 52.4783 31.156 51.1343 32.38C49.7903 33.58 48.2663 34.18 46.5623 34.18C45.1223 34.18 43.8863 33.832 42.8543 33.136C41.8463 32.44 41.0783 31.516 40.5503 30.364C40.0223 29.212 39.7583 27.964 39.7583 26.62C39.7583 24.796 40.1063 23.176 40.8023 21.76C41.4983 20.32 42.4583 19.204 43.6823 18.412C44.9063 17.596 46.2623 17.188 47.7503 17.188C49.5743 17.188 51.0383 17.824 52.1423 19.096C53.2703 20.344 53.9303 21.892 54.1223 23.74C55.2503 23.668 56.5943 23.428 58.1543 23.02C58.3463 22.972 58.5143 22.948 58.6583 22.948ZM46.8503 30.364C47.6183 30.364 48.2783 30.052 48.8303 29.428C49.4063 28.804 49.7903 27.904 49.9823 26.728C49.2383 26.224 48.6623 25.564 48.2543 24.748C47.8703 23.932 47.6783 23.068 47.6783 22.156C47.6783 21.772 47.7143 21.388 47.7863 21.004H47.6063C46.6463 21.004 45.8423 21.472 45.1943 22.408C44.5703 23.32 44.2583 24.616 44.2583 26.296C44.2583 27.616 44.5103 28.624 45.0143 29.32C45.5423 30.016 46.1543 30.364 46.8503 30.364ZM77.3485 25.972C77.6605 25.972 77.9005 26.116 78.0685 26.404C78.2605 26.692 78.3565 27.088 78.3565 27.592C78.3565 28.552 78.1285 29.296 77.6725 29.824C76.5925 31.144 75.5005 32.2 74.3965 32.992C73.2925 33.784 71.9845 34.18 70.4725 34.18C68.6245 34.18 67.1365 33.652 66.0085 32.596C64.8805 31.54 64.3165 30.136 64.3165 28.384C64.3165 27.448 64.7965 26.776 65.7565 26.368C66.8125 25.912 67.5685 25.432 68.0245 24.928C68.4805 24.4 68.7085 23.764 68.7085 23.02C68.7085 22.588 68.6125 22.264 68.4205 22.048C68.2525 21.832 68.0365 21.724 67.7725 21.724C67.1245 21.724 66.4045 22.192 65.6125 23.128C64.8445 24.064 64.1245 25.276 63.4525 26.764C62.7805 28.228 62.2525 29.74 61.8685 31.3C61.6045 32.428 61.2925 33.196 60.9325 33.604C60.5965 33.988 60.0565 34.18 59.3125 34.18C58.5685 34.18 58.0165 33.916 57.6565 33.388C57.3205 32.836 57.0925 31.996 56.9725 30.868C56.8525 29.74 56.7925 28.084 56.7925 25.9C56.7925 22.204 57.1645 18.352 57.9085 14.344C58.6765 10.336 59.7925 6.976 61.2565 4.264C62.7445 1.528 64.5205 0.159998 66.5845 0.159998C67.6885 0.159998 68.5765 0.639998 69.2485 1.6C69.9445 2.536 70.2925 3.76 70.2925 5.272C70.2925 7.696 69.5845 10.216 68.1685 12.832C66.7525 15.424 64.4485 18.46 61.2565 21.94C61.1845 23.188 61.1485 24.472 61.1485 25.792C62.3005 22.792 63.6205 20.62 65.1085 19.276C66.5965 17.908 67.9885 17.224 69.2845 17.224C70.4845 17.224 71.4445 17.632 72.1645 18.448C72.9085 19.264 73.2805 20.272 73.2805 21.472C73.2805 22.792 72.9445 24.004 72.2725 25.108C71.6005 26.212 70.4485 27.196 68.8165 28.06C68.9125 28.708 69.2005 29.236 69.6805 29.644C70.1845 30.028 70.7845 30.22 71.4805 30.22C72.2245 30.22 72.9445 29.932 73.6405 29.356C74.3365 28.78 75.2485 27.82 76.3765 26.476C76.6645 26.14 76.9885 25.972 77.3485 25.972ZM65.8285 3.724C65.3965 3.724 64.9165 4.348 64.3885 5.596C63.8605 6.82 63.3445 8.488 62.8405 10.6C62.3605 12.688 61.9645 14.968 61.6525 17.44C63.1405 15.688 64.3645 13.78 65.3245 11.716C66.3085 9.652 66.8005 7.78 66.8005 6.1C66.8005 5.332 66.7165 4.744 66.5485 4.336C66.3805 3.928 66.1405 3.724 65.8285 3.724ZM91.5106 25.972C91.8226 25.972 92.0626 26.116 92.2306 26.404C92.4226 26.692 92.5186 27.088 92.5186 27.592C92.5186 28.552 92.2906 29.296 91.8346 29.824C90.9466 30.904 89.6866 31.9 88.0546 32.812C86.4466 33.724 84.7186 34.18 82.8706 34.18C80.3506 34.18 78.3946 33.496 77.0026 32.128C75.6106 30.76 74.9146 28.888 74.9146 26.512C74.9146 24.856 75.2626 23.32 75.9586 21.904C76.6546 20.464 77.6146 19.324 78.8386 18.484C80.0866 17.644 81.4906 17.224 83.0506 17.224C84.4426 17.224 85.5586 17.644 86.3986 18.484C87.2386 19.3 87.6586 20.416 87.6586 21.832C87.6586 23.488 87.0586 24.916 85.8586 26.116C84.6826 27.292 82.6786 28.228 79.8466 28.924C80.4466 30.028 81.5866 30.58 83.2666 30.58C84.3466 30.58 85.5706 30.208 86.9386 29.464C88.3306 28.696 89.5306 27.7 90.5386 26.476C90.8266 26.14 91.1506 25.972 91.5106 25.972ZM82.4386 20.752C81.5506 20.752 80.7946 21.268 80.1706 22.3C79.5706 23.332 79.2706 24.58 79.2706 26.044V26.116C80.6866 25.78 81.8026 25.276 82.6186 24.604C83.4346 23.932 83.8426 23.152 83.8426 22.264C83.8426 21.808 83.7106 21.448 83.4466 21.184C83.2066 20.896 82.8706 20.752 82.4386 20.752ZM93.8396 34.18C92.3516 34.18 91.1636 33.64 90.2756 32.56C89.3876 31.48 88.9436 30.064 88.9436 28.312C88.9436 26.392 89.3876 24.58 90.2756 22.876C91.1636 21.148 92.3396 19.768 93.8036 18.736C95.2916 17.68 96.8636 17.152 98.5196 17.152C99.0476 17.152 99.3956 17.26 99.5636 17.476C99.7556 17.668 99.9116 18.028 100.032 18.556C100.536 18.46 101.064 18.412 101.616 18.412C102.792 18.412 103.38 18.832 103.38 19.672C103.38 20.176 103.2 21.376 102.84 23.272C102.288 26.032 102.012 27.952 102.012 29.032C102.012 29.392 102.096 29.68 102.264 29.896C102.456 30.112 102.696 30.22 102.984 30.22C103.44 30.22 103.992 29.932 104.64 29.356C105.288 28.756 106.164 27.796 107.268 26.476C107.556 26.14 107.88 25.972 108.24 25.972C108.552 25.972 108.792 26.116 108.96 26.404C109.152 26.692 109.248 27.088 109.248 27.592C109.248 28.552 109.02 29.296 108.564 29.824C107.58 31.048 106.536 32.08 105.432 32.92C104.328 33.76 103.26 34.18 102.228 34.18C101.436 34.18 100.704 33.916 100.032 33.388C99.3836 32.836 98.8916 32.092 98.5556 31.156C97.3076 33.172 95.7356 34.18 93.8396 34.18ZM95.1356 30.544C95.6636 30.544 96.1676 30.232 96.6476 29.608C97.1276 28.984 97.4756 28.156 97.6916 27.124L99.0236 20.5C98.0156 20.524 97.0796 20.908 96.2156 21.652C95.3756 22.372 94.7036 23.332 94.1996 24.532C93.6956 25.732 93.4436 27.004 93.4436 28.348C93.4436 29.092 93.5876 29.644 93.8756 30.004C94.1876 30.364 94.6076 30.544 95.1356 30.544ZM113.018 34.972C111.77 34.972 110.81 34.684 110.138 34.108C109.49 33.532 109.166 32.884 109.166 32.164C109.166 31.54 109.394 31 109.85 30.544C110.306 30.088 110.978 29.86 111.866 29.86C112.178 29.86 112.538 29.896 112.946 29.968C113.378 30.016 113.702 30.052 113.918 30.076C113.894 29.452 113.75 28.864 113.486 28.312C113.246 27.76 112.934 27.232 112.55 26.728C112.166 26.2 111.806 25.744 111.47 25.36C110.726 26.776 109.982 27.952 109.238 28.888C108.518 29.824 107.726 30.712 106.862 31.552C106.43 31.984 105.974 32.2 105.494 32.2C105.11 32.2 104.798 32.068 104.558 31.804C104.318 31.516 104.198 31.168 104.198 30.76C104.198 30.28 104.366 29.836 104.702 29.428L105.17 28.852C106.49 27.22 107.486 25.876 108.158 24.82C108.566 24.124 109.046 23.2 109.598 22.048C110.15 20.872 110.69 19.66 111.218 18.412C111.674 17.356 112.622 16.828 114.062 16.828C114.734 16.828 115.202 16.888 115.466 17.008C115.73 17.128 115.862 17.32 115.862 17.584C115.862 17.728 115.814 17.956 115.718 18.268C115.622 18.58 115.49 18.892 115.322 19.204C114.89 20.068 114.674 20.8 114.674 21.4C114.674 21.76 114.794 22.156 115.034 22.588C115.298 23.02 115.694 23.56 116.222 24.208C116.99 25.216 117.566 26.08 117.95 26.8C118.358 27.496 118.562 28.264 118.562 29.104C118.562 29.344 118.538 29.68 118.49 30.112C119.666 29.656 121.046 28.444 122.63 26.476C122.918 26.14 123.242 25.972 123.602 25.972C123.914 25.972 124.154 26.116 124.322 26.404C124.514 26.692 124.61 27.088 124.61 27.592C124.61 28.504 124.382 29.248 123.926 29.824C122.726 31.312 121.574 32.332 120.47 32.884C119.39 33.412 118.046 33.7 116.438 33.748C115.478 34.564 114.338 34.972 113.018 34.972ZM134.285 17.224C134.837 17.224 135.221 17.296 135.437 17.44C135.653 17.584 135.761 17.824 135.761 18.16C135.761 18.736 135.449 20.788 134.825 24.316C134.273 27.7 133.949 29.704 133.853 30.328C132.965 36.496 131.741 41.38 130.181 44.98C128.621 48.58 126.545 50.38 123.953 50.38C122.729 50.38 121.733 49.996 120.965 49.228C120.197 48.484 119.813 47.5 119.813 46.276C119.813 45.148 120.065 43.996 120.569 42.82C121.097 41.644 122.057 40.288 123.449 38.752C124.865 37.24 126.857 35.5 129.425 33.532L129.533 32.704C129.701 31.816 129.893 30.544 130.109 28.888C129.629 30.616 128.957 31.936 128.093 32.848C127.229 33.736 126.317 34.18 125.357 34.18C124.277 34.18 123.389 33.688 122.693 32.704C122.021 31.696 121.685 30.448 121.685 28.96C121.685 27.16 121.805 25.516 122.045 24.028C122.285 22.516 122.681 20.92 123.233 19.24C123.473 18.52 123.809 18.004 124.241 17.692C124.673 17.38 125.357 17.224 126.293 17.224C126.821 17.224 127.181 17.308 127.373 17.476C127.589 17.644 127.697 17.896 127.697 18.232C127.697 18.424 127.565 19.072 127.301 20.176C127.061 21.064 126.869 21.868 126.725 22.588C126.533 23.572 126.365 24.52 126.221 25.432C126.077 26.32 126.005 27.052 126.005 27.628C126.005 28.54 126.257 28.996 126.761 28.996C127.121 28.996 127.565 28.636 128.093 27.916C128.645 27.196 129.221 26.104 129.821 24.64C130.445 23.176 131.045 21.376 131.621 19.24C131.813 18.52 132.101 18.004 132.485 17.692C132.893 17.38 133.493 17.224 134.285 17.224ZM124.349 46.888C124.949 46.888 125.621 46.192 126.365 44.8C127.109 43.408 127.853 41.092 128.597 37.852C126.749 39.412 125.405 40.828 124.565 42.1C123.749 43.396 123.341 44.524 123.341 45.484C123.341 45.892 123.413 46.228 123.557 46.492C123.725 46.756 123.989 46.888 124.349 46.888Z" fill="#006D77"/>
</svg>
